<svg width="51" height="20" viewBox="0 0 51 20" fill="none" xmlns="http://www.w3.org/2000/svg">
<path d="M5.62175 9.55697L3.59792 5.4812H3.51359V19.6199H0V0H4.07577L9.9786 10.0629L12.0024 14.1387H12.0868V0H15.6003V19.6199H11.5246L5.62175 9.55697Z" fill="white"/>
<path d="M18.2355 19.6199V0H31.1656V3.28872H21.9459V8.0391H30.0974V11.3278H21.9459V16.3312H31.1656V19.6199H18.2355Z" fill="white"/>
<path d="M50.6901 19.6199H46.3614L41.864 12.0868H41.7797L37.3385 19.6199H33.2908L39.6434 9.55697L33.5719 0H37.9007L42.0608 6.97097H42.1451L46.3614 0H50.4091L44.2814 9.55697L50.6901 19.6199Z" fill="white"/>
</svg>
