<svg width="58" height="20" viewBox="0 0 58 20" fill="none" xmlns="http://www.w3.org/2000/svg">
<path d="M4.55361 19.6199L0 0H3.71035L5.64986 9.41643L6.85853 15.4317H6.94286L8.34829 9.41643L10.597 0H14.7009L16.9496 9.41643L18.3269 15.4317H18.4112L19.648 9.41643L21.6437 0H25.1854L20.4913 19.6199H16.3031L13.8014 9.24777L12.5927 4.07577H12.5365L11.2716 9.24777L8.76992 19.6199H4.55361Z" fill="white"/>
<path d="M27.1311 19.6199V0H40.0611V3.28872H30.8414V8.0391H38.993V11.3278H30.8414V16.3312H40.0611V19.6199H27.1311Z" fill="white"/>
<path d="M42.2988 0H51.3779C52.1837 0 52.9052 0.121804 53.5423 0.365412C54.1982 0.609021 54.751 0.946326 55.2007 1.37733C55.6505 1.80833 55.9878 2.34239 56.2126 2.97953C56.4562 3.59792 56.5781 4.2819 56.5781 5.03146C56.5781 5.78103 56.475 6.41816 56.2689 6.94286C56.0815 7.44881 55.8191 7.87045 55.4818 8.20775C55.1632 8.54506 54.7885 8.79803 54.3575 8.96669C53.9452 9.13534 53.5142 9.22903 53.0645 9.24777V9.41643C53.4955 9.41643 53.9546 9.50075 54.4418 9.6694C54.9477 9.83806 55.4069 10.1098 55.8191 10.4846C56.2501 10.8406 56.6062 11.3091 56.8872 11.89C57.1683 12.4522 57.3089 13.1549 57.3089 13.9981C57.3089 14.7852 57.1777 15.5254 56.9154 16.2187C56.6718 16.8934 56.3251 17.4836 55.8753 17.9896C55.4256 18.4955 54.8915 18.8984 54.2731 19.1983C53.6547 19.4794 52.9801 19.6199 52.2493 19.6199H42.2988V0ZM46.0092 16.4717H51.1812C51.8933 16.4717 52.4461 16.2937 52.8396 15.9377C53.2331 15.5629 53.4299 15.0288 53.4299 14.3355V13.3798C53.4299 12.6864 53.2331 12.1523 52.8396 11.7776C52.4461 11.4028 51.8933 11.2154 51.1812 11.2154H46.0092V16.4717ZM46.0092 8.17964H50.5909C51.2655 8.17964 51.7902 8.00162 52.165 7.64557C52.5398 7.27079 52.7272 6.75547 52.7272 6.09959V5.22822C52.7272 4.57235 52.5398 4.0664 52.165 3.71035C51.7902 3.33557 51.2655 3.14818 50.5909 3.14818H46.0092V8.17964Z" fill="white"/>
</svg>
