<svg width="1345" height="434" viewBox="0 0 1345 434" fill="none" xmlns="http://www.w3.org/2000/svg">
<path fill-rule="evenodd" clip-rule="evenodd" d="M187.613 125.571C186.375 125.806 183.336 126.217 180.859 126.485C178.383 126.752 174.78 127.338 172.854 127.786C170.928 128.234 168.789 128.717 168.101 128.86C162.191 130.087 149.366 134.408 142.854 137.365C137.865 139.631 125.675 145.929 121.375 148.463C113.308 153.216 100.898 162.419 93.8276 168.89C85.0964 176.881 84.4505 176.189 90.3045 165.111L94.0568 158.01V146.325C94.0568 135.637 93.9787 134.57 93.1417 133.815C92.3042 133.061 88.3203 132.991 46.1133 132.991H0V426.448H46.2004C90.323 426.448 92.4378 426.408 93.2288 425.537C93.9932 424.696 94.0568 417.432 94.0568 331.155C94.0568 267.835 94.2239 237.246 94.5756 236.325C95.1905 234.714 104.079 225.819 108.235 222.654C117.572 215.546 127.973 210.787 137.982 209.043C151.892 206.619 152.292 206.619 166.202 209.043C182.248 211.839 192.022 220.055 197.234 235.128C200.519 244.628 200.621 247.872 200.621 342.429C200.621 421.595 200.657 424.831 201.536 425.624C202.373 426.378 206.283 426.448 247.486 426.448C290.48 426.448 292.559 426.407 293.35 425.537C294.115 424.696 294.175 416.866 294.137 322.528C294.093 211.89 293.898 201.568 291.684 192.529C282.834 156.406 261.452 135.841 224.385 127.802C221.083 127.086 217.256 126.499 215.88 126.497C214.504 126.495 211.578 126.17 209.376 125.774C204.981 124.983 191.378 124.857 187.613 125.571ZM1062.39 125.571C1061.02 125.802 1057.19 126.205 1053.89 126.469C1050.58 126.732 1046.31 127.312 1044.38 127.757C1042.45 128.203 1039.75 128.75 1038.38 128.973C1029.64 130.387 1016.11 134.859 1003.86 140.385C989.437 146.884 969.311 161.13 959.579 171.726C950.402 181.717 948.563 184.04 941.535 194.522C936.385 202.205 929.959 215.417 926.148 226.16C922.762 235.705 919.055 250.782 919.055 255.004C919.055 256.335 918.717 258.376 918.304 259.541C917.689 261.277 917.554 264.968 917.554 279.969C917.554 294.97 917.689 298.661 918.304 300.396C918.717 301.561 919.055 303.478 919.055 304.656C919.055 305.833 919.29 307.991 919.578 309.451C921.083 317.08 921.71 319.868 922.583 322.816C923.11 324.598 923.736 326.952 923.975 328.048C924.894 332.27 929.29 343.355 933.263 351.465C937.388 359.884 944.348 370.837 950.36 378.369C954.308 383.316 965.66 394.632 970.02 397.969C988.062 411.774 1007.68 421.861 1025.37 426.422C1028.67 427.274 1032.39 428.277 1033.62 428.652C1034.86 429.026 1037.45 429.608 1039.38 429.943C1041.3 430.279 1044.04 430.863 1045.46 431.241C1046.88 431.619 1049.28 431.929 1050.8 431.929C1052.32 431.929 1054.65 432.156 1055.97 432.433C1058.15 432.888 1074.32 434.005 1078.65 434C1081.06 433.998 1103.44 432.498 1108.67 431.989C1111.01 431.761 1114.16 431.324 1115.67 431.019C1117.19 430.712 1120.11 430.216 1122.18 429.917C1125.91 429.375 1127.56 429.01 1135.69 426.928C1138.02 426.328 1140.84 425.652 1141.94 425.423C1144.43 424.908 1157.16 420.618 1162.21 418.59C1171.06 415.042 1179.09 410.925 1188.47 405.118C1192.11 402.864 1199.72 396.996 1200.23 396.053C1200.5 395.543 1200.72 394.713 1200.72 394.209C1200.72 393.705 1197.13 388.029 1192.74 381.596C1188.34 375.163 1180.88 364.182 1176.15 357.194C1164 339.254 1163.27 338.262 1162.13 338.262C1161.59 338.262 1158.54 339.976 1155.35 342.072C1148.22 346.764 1142.13 349.98 1134.85 352.915C1128.71 355.387 1117.82 358.689 1115.8 358.689C1115.09 358.689 1113.36 359.01 1111.97 359.402C1106.2 361.017 1102.28 361.361 1089.91 361.335C1082.31 361.319 1076.22 361.075 1074.4 360.712C1060.37 357.923 1048.05 353.064 1040.14 347.197C1035.11 343.473 1027.39 335.822 1024.42 331.62C1021.36 327.305 1017.01 318.212 1015.54 313.075C1014.11 308.091 1013.67 300.894 1014.8 300.894C1015.21 300.894 1016.83 302.439 1018.39 304.327C1019.95 306.214 1021.77 308.008 1022.44 308.312C1023.33 308.713 1051.39 308.866 1123.7 308.866C1223.07 308.866 1223.75 308.86 1224.74 307.87C1225.67 306.942 1225.74 306.228 1225.71 297.531C1225.7 292.394 1225.47 286.396 1225.2 284.204C1224.93 282.011 1224.5 276.406 1224.23 271.748C1223.68 261.968 1223.01 255.393 1222.47 254.529C1222.26 254.197 1221.93 252.554 1221.73 250.879C1221.36 247.799 1220.21 242.774 1217.9 234.132C1214.91 222.945 1207.88 205.695 1203.28 198.259C1202.51 197.026 1200.91 194.335 1199.71 192.28C1194.75 183.767 1188.54 176.115 1178.23 165.85C1168.59 156.246 1165.23 153.639 1151.44 145.071C1140.41 138.211 1121.06 131.083 1105.92 128.299C1103.44 127.843 1100.96 127.353 1100.41 127.21C1099.86 127.066 1097.05 126.752 1094.16 126.51C1091.27 126.268 1087.44 125.838 1085.66 125.555C1081.85 124.952 1066.02 124.963 1062.39 125.571ZM315.513 133.907C314.741 134.757 314.695 142.822 314.877 245.635C314.991 310.703 315.267 358.092 315.544 360.433C315.805 362.625 316.276 365.428 316.593 366.661C316.91 367.894 317.522 370.448 317.954 372.336C318.669 375.463 320.56 380.797 323.274 387.337C325.809 393.446 333.121 403.803 338.795 409.322C344.757 415.121 350.676 419.185 359.1 423.264C365.601 426.411 373.029 429.048 378.66 430.207C380.714 430.629 382.621 431.114 382.897 431.284C383.388 431.586 385.344 431.84 395.489 432.922C408.784 434.34 428.247 433.288 440.016 430.514C450.695 427.998 455.275 426.539 464.703 422.648C482.409 415.342 501.043 403.816 512.81 392.893C516.78 389.207 519.557 387.095 520.439 387.09C521.324 387.086 520.62 389.385 517.562 396.479L514.31 404.026V414.413C514.31 423.842 514.394 424.875 515.225 425.624C516.062 426.378 519.972 426.448 561.176 426.448C604.17 426.448 606.248 426.407 607.039 425.537C607.805 424.694 607.867 413.852 607.867 279.633C607.867 139.799 607.834 134.611 606.952 133.815C606.115 133.061 602.205 132.991 561.002 132.991C518.085 132.991 515.927 133.034 515.142 133.898C514.384 134.732 514.308 142.3 514.189 228.459L514.06 322.113L511.472 325.33C507.184 330.658 500.243 336.89 494.665 340.42C487.943 344.674 475.857 349.721 472.393 349.721C471.577 349.721 469.953 350.057 468.783 350.468C465.868 351.493 447.837 351.529 443.801 350.519C442.269 350.135 439.701 349.582 438.094 349.29C434.299 348.599 425.79 344.471 422.129 341.543C416.356 336.927 410.909 327.267 409.744 319.578C409.495 317.934 409.06 315.131 408.779 313.35C408.444 311.233 408.263 279.733 408.256 222.376C408.247 138.018 408.211 134.608 407.331 133.815C406.494 133.061 402.585 132.991 361.381 132.991C318.301 132.991 316.31 133.031 315.513 133.907ZM627.206 133.902C626.462 134.721 626.378 137.04 626.378 156.807C626.378 177.617 626.431 178.916 627.361 180.932C628.577 183.568 630.257 187.759 633.206 195.519C634.455 198.807 637.168 205.757 639.233 210.964C646.245 228.643 649.283 236.354 653.651 247.562C656.049 253.715 658.317 259.432 658.691 260.267C659.343 261.723 663.796 273.03 667.628 282.958C668.633 285.561 670.115 289.261 670.922 291.179C671.729 293.097 675.78 303.298 679.925 313.848C693.572 348.582 697.145 357.63 706.68 381.608C713.135 397.84 717.965 410.07 720.75 417.231C722.482 421.686 723.919 424.611 724.728 425.327L725.994 426.448H822.941L824.193 425.327C825.052 424.559 827.016 420.211 830.438 411.501C833.183 404.514 836.135 397.115 836.998 395.06C837.86 393.005 838.856 390.426 839.21 389.33C839.917 387.14 846.985 369.289 851.341 358.689C852.862 354.99 855.003 349.609 856.1 346.732C857.197 343.854 859.114 338.922 860.359 335.77C861.605 332.619 864.526 325.22 866.851 319.329C869.177 313.437 873.341 302.9 876.105 295.912C878.869 288.924 881.65 281.862 882.285 280.218C885.202 272.658 891.145 257.639 891.789 256.197C892.183 255.316 894.414 249.711 896.749 243.741C902.114 230.017 908.586 213.563 912.288 204.238C913.865 200.264 917.292 191.633 919.902 185.056C922.513 178.479 926.553 168.278 928.881 162.386C931.208 156.495 934.565 148.025 936.34 143.565C938.115 139.105 939.567 135.133 939.567 134.739C939.567 134.345 939.132 133.791 938.599 133.507C937.103 132.709 843.014 132.828 841.96 133.63C840.8 134.511 839.697 136.835 837.459 143.116C833.211 155.039 829.985 163.974 826.994 172.102C825.28 176.76 822.877 183.374 821.655 186.8C819.729 192.2 815.118 204.777 812.797 210.964C811.744 213.769 806.555 228.255 805.212 232.139C804.596 233.92 803.136 237.955 801.968 241.107C799.247 248.448 796.993 254.646 794.993 260.289C794.119 262.755 792.715 266.566 791.874 268.759C791.033 270.951 789.394 275.435 788.233 278.723C784.564 289.108 780.959 299.036 779.641 302.389C778.443 305.433 778.371 306.126 778.436 313.915C778.475 318.473 778.723 322.956 778.989 323.877C780.046 327.547 779.156 331.308 777.778 328.99C777.176 327.975 774.239 320.137 769.397 306.624C767.728 301.966 764.793 293.782 762.873 288.439C755.041 266.634 753.2 261.484 750.939 255.057C749.637 251.358 747.975 246.762 747.246 244.843C746.517 242.925 745.118 239.002 744.139 236.124C743.16 233.247 741.785 229.436 741.084 227.655C740.383 225.873 738.235 219.932 736.311 214.451C728.963 193.517 727.859 190.422 726.355 186.551C725.503 184.358 723.954 180.098 722.912 177.084C721.87 174.07 719.075 166.223 716.7 159.646C714.325 153.07 711.576 145.334 710.591 142.457C708.448 136.194 707.249 133.719 706.157 133.301C705.709 133.131 687.949 132.991 666.689 132.991C629.876 132.991 627.995 133.034 627.206 133.902ZM1245.58 133.902C1244.81 134.746 1244.75 145.588 1244.75 279.806C1244.75 419.641 1244.78 424.829 1245.67 425.624C1246.5 426.378 1250.43 426.448 1291.87 426.448C1335.1 426.448 1337.19 426.407 1337.98 425.537C1338.75 424.694 1338.81 413.852 1338.81 279.633C1338.81 139.799 1338.78 134.611 1337.89 133.815C1337.06 133.061 1333.13 132.991 1291.69 132.991C1248.46 132.991 1246.37 133.032 1245.58 133.902ZM1085.91 198.192C1092.51 198.961 1101.5 201.73 1106.6 204.559C1109.87 206.379 1115.79 210.504 1118.3 212.715C1120.83 214.942 1125.7 221.378 1128.28 225.901C1131.73 231.947 1134.16 238.849 1135.03 245.046C1135.28 246.828 1135.16 247.367 1134.41 247.911C1133.65 248.462 1123.16 248.58 1074.77 248.58C1035.25 248.58 1015.73 248.412 1015.08 248.065C1013.18 247.052 1014.06 242.395 1018.08 232.248C1020.54 226.027 1028.34 215.305 1033.25 211.379C1040.46 205.612 1045.61 202.846 1054.43 199.999C1057.97 198.858 1060.87 198.242 1062.86 198.209C1064.53 198.182 1066.46 197.97 1067.14 197.738C1068.61 197.242 1080.15 197.522 1085.91 198.192Z" fill="white"/>
<path d="M1345 55C1345 85.3757 1320.38 110 1290 110C1259.62 110 1235 85.3757 1235 55C1235 24.6243 1259.62 0 1290 0C1320.38 0 1345 24.6243 1345 55Z" fill="#E40946"/>
</svg>
